<?xml version="1.0" standalone="no"?>
<!DOCTYPE svg PUBLIC "-//W3C//DTD SVG 20010904//EN"
 "http://www.w3.org/TR/2001/REC-SVG-20010904/DTD/svg10.dtd">
<svg version="1.0" xmlns="http://www.w3.org/2000/svg"
 width="274.000000pt" height="105.000000pt" viewBox="0 0 274.000000 105.000000"
 preserveAspectRatio="xMidYMid meet">
<metadata>
Created by potrace 1.16, written by Peter Selinger 2001-2019
</metadata>
<g transform="translate(0.000000,105.000000) scale(0.100000,-0.100000)"
fill="#000000" stroke="none">
<path d="M1941 846 c-21 -25 -42 -175 -36 -251 16 -179 43 -272 83 -282 47
-11 57 6 62 108 l5 94 14 -45 c20 -66 68 -157 86 -164 23 -9 55 11 55 35 0 11
-8 36 -19 57 -25 49 -81 226 -81 256 0 13 14 36 35 55 38 34 41 42 25 72 -15
27 -44 24 -83 -11 -43 -37 -50 -38 -42 -2 12 56 -71 118 -104 78z"/>
<path d="M2485 818 c-11 -7 -32 -11 -47 -9 -21 2 -30 -4 -45 -31 -14 -27 -18
-64 -21 -201 -2 -92 -1 -183 2 -201 4 -18 22 -51 42 -74 29 -34 42 -42 70 -42
85 0 129 59 144 193 22 186 8 322 -37 357 -28 22 -77 26 -108 8z m61 -155 c7
-68 0 -230 -12 -270 -3 -13 -12 -23 -20 -23 -28 0 -36 41 -32 174 2 105 7 137
21 159 9 15 21 27 26 27 5 0 13 -30 17 -67z"/>
<path d="M182 807 c-23 -28 -36 -134 -36 -307 -1 -152 1 -179 17 -203 20 -32
55 -35 86 -9 17 14 21 30 23 97 l3 80 37 6 c54 8 84 33 103 83 32 83 3 188
-64 232 -45 29 -151 43 -169 21z"/>
<path d="M646 806 c-32 -24 -49 -116 -53 -292 -5 -169 -5 -172 17 -187 15 -11
29 -13 39 -7 11 5 24 2 40 -11 16 -13 39 -19 75 -19 57 0 76 12 76 47 0 27
-26 43 -66 40 -29 -2 -29 -2 -32 61 -3 60 -2 62 22 62 22 0 56 31 56 52 0 15
-33 38 -54 38 -21 0 -22 3 -18 63 2 34 5 63 6 64 1 1 19 -2 41 -7 22 -5 48 -7
57 -4 26 8 33 42 13 64 -26 29 -193 57 -219 36z"/>
<path d="M1070 797 c-49 -25 -32 -94 21 -83 26 5 26 4 33 -62 3 -37 9 -129 13
-204 l6 -138 33 -25 c35 -27 51 -30 73 -16 11 7 13 49 12 218 -2 205 2 249 20
237 15 -9 59 24 59 44 0 10 -5 23 -12 30 -17 17 -225 16 -258 -1z"/>
<path d="M1586 765 c-56 -13 -76 -26 -76 -52 0 -12 23 -39 39 -45 5 -1 12 -74
16 -160 7 -155 7 -158 -13 -158 -23 0 -52 -25 -52 -45 0 -7 8 -21 17 -30 14
-14 30 -17 88 -13 89 6 129 24 133 60 3 22 -2 30 -24 40 l-27 13 8 130 c13
230 13 239 -3 258 -17 19 -24 19 -106 2z"/>
</g>
</svg>
